<svg xmlns="http://www.w3.org/2000/svg" width="29.189" height="29.949" viewBox="0 0 29.189 29.949">
  <g id="younited" transform="translate(14.594 14.974)">
    <g id="younited-2" data-name="younited" transform="translate(-14.594 -14.975)">
      <path id="Tracé_820099" data-name="Tracé 820099" d="M6.863,29.947a10.606,10.606,0,0,1-2.941-.357,12.745,12.745,0,0,1-2.5-1.025l1.783-3.922a8.913,8.913,0,0,0,1.515.624,5.258,5.258,0,0,0,1.6.223A2.986,2.986,0,0,0,8.2,24.911a5.169,5.169,0,0,0,1.381-2.094L0,0H5.615l6.506,17.023L18.048,0h5.481L14.394,23.529a19.474,19.474,0,0,1-1.426,2.986,7.843,7.843,0,0,1-1.649,2.005,5.927,5.927,0,0,1-2.005,1.114,8.111,8.111,0,0,1-2.451.312Z" fill="#515d71"/>
      <path id="Tracé_820100" data-name="Tracé 820100" d="M54.4,39.9h4.947v5.125H54.4Z" transform="translate(-30.158 -22.119)" fill="#eb5b26"/>
    </g>
  </g>
</svg>
