<svg xmlns="http://www.w3.org/2000/svg" width="185.052" height="22.528" viewBox="0 0 185.052 22.528">
  <g id="Illustration_4" data-name="Illustration 4" transform="translate(92.526 11.264)">
    <g id="Illustration_4-2" data-name="Illustration 4" transform="translate(-92.526 -11.264)">
      <path id="Tracé_811672" data-name="Tracé 811672" d="M4,32.794a6.144,6.144,0,0,1-1.728-.224,7.488,7.488,0,0,1-1.44-.576l1.024-2.272a5.344,5.344,0,0,0,.9.352,3.04,3.04,0,0,0,.9.16,1.728,1.728,0,0,0,1.088-.32,3.008,3.008,0,0,0,.8-1.216L0,15.354H3.264l3.776,9.92,3.456-9.92h3.2L8.352,29.05a11.072,11.072,0,0,1-.832,1.76,4.544,4.544,0,0,1-.96,1.152,3.456,3.456,0,0,1-1.184.64,4.7,4.7,0,0,1-1.408.192M22.08,28.986a7.232,7.232,0,0,1-2.784-.544,7.008,7.008,0,0,1-2.24-1.472,6.72,6.72,0,0,1-1.5-2.208,6.848,6.848,0,0,1-.512-2.656v-.064a6.752,6.752,0,0,1,.544-2.688A6.88,6.88,0,0,1,19.3,15.642a7.168,7.168,0,0,1,2.848-.544,7.3,7.3,0,0,1,2.848.544,6.752,6.752,0,0,1,4.224,6.368v.032A6.72,6.72,0,0,1,28.7,24.73a6.944,6.944,0,0,1-1.5,2.208,7.04,7.04,0,0,1-2.24,1.5,7.232,7.232,0,0,1-2.88.544m.064-2.656a3.936,3.936,0,0,0,1.664-.32,3.84,3.84,0,0,0,1.28-.96,3.968,3.968,0,0,0,.8-1.312,4.8,4.8,0,0,0,.288-1.632v-.064a4.576,4.576,0,0,0-.32-1.664A4.288,4.288,0,0,0,25.023,19a4.038,4.038,0,0,0-4.544-.9,3.968,3.968,0,0,0-1.28.9,3.84,3.84,0,0,0-.8,1.344,4.928,4.928,0,0,0-.256,1.632v.064a4.48,4.48,0,0,0,.32,1.664,4.384,4.384,0,0,0,.8,1.344,3.936,3.936,0,0,0,1.28.96,3.84,3.84,0,0,0,1.632.32" transform="translate(0 -10.266)" fill="#fff"/>
      <path id="Tracé_811673" data-name="Tracé 811673" d="M103.834,29.532a4.457,4.457,0,0,1-3.52-1.408A5.321,5.321,0,0,1,99.1,24.38V15.9h3.072v7.552a3.528,3.528,0,0,0,.736,2.4,2.624,2.624,0,0,0,2.08.832,2.816,2.816,0,0,0,2.176-.864,3.446,3.446,0,0,0,.8-2.432V15.9h3.1V29.244h-3.1V27.132a6.592,6.592,0,0,1-1.6,1.664,4.224,4.224,0,0,1-2.56.7" transform="translate(-67.387 -10.812)" fill="#f15c25"/>
      <path id="Tracé_811674" data-name="Tracé 811674" d="M146.832,5.088H149.9V7.2a7.615,7.615,0,0,1,.7-.9,4.863,4.863,0,0,1,.928-.768,4.64,4.64,0,0,1,1.12-.512,4.8,4.8,0,0,1,1.408-.192,4.469,4.469,0,0,1,3.488,1.376,5.252,5.252,0,0,1,1.216,3.744V18.4H155.7V10.88a3.512,3.512,0,0,0-.736-2.432,2.656,2.656,0,0,0-2.08-.832,2.816,2.816,0,0,0-2.176.864,3.363,3.363,0,0,0-.832,2.432V18.4H146.8ZM162,.16h3.328V3.04H162Zm.128,4.96h3.1V18.4h-3.1Zm11.04,13.536a5.632,5.632,0,0,1-1.536-.224,3.136,3.136,0,0,1-1.28-.64,2.944,2.944,0,0,1-.768-1.216,5.312,5.312,0,0,1-.288-1.856V7.712h-1.7V5.088h1.7V1.44h3.072V5.088h3.616V7.712H172.4V14.24a1.664,1.664,0,0,0,.448,1.28,1.728,1.728,0,0,0,1.216.384,4.16,4.16,0,0,0,1.888-.448v2.5a5.44,5.44,0,0,1-1.248.512,5.824,5.824,0,0,1-1.5.16m11.456.1a7.136,7.136,0,0,1-2.688-.512,6.4,6.4,0,0,1-3.616-3.584,7.264,7.264,0,0,1-.544-2.816v-.064a7.52,7.52,0,0,1,.48-2.688,6.848,6.848,0,0,1,1.376-2.208,6.368,6.368,0,0,1,2.048-1.472,6.24,6.24,0,0,1,2.624-.544,6.336,6.336,0,0,1,2.784.576A5.76,5.76,0,0,1,189.1,6.976a6.848,6.848,0,0,1,1.216,2.24A9.184,9.184,0,0,1,190.7,12v.416l-.032.448h-9.888a3.9,3.9,0,0,0,1.312,2.5,3.84,3.84,0,0,0,2.56.864,4.48,4.48,0,0,0,1.92-.384,6.4,6.4,0,0,0,1.664-1.184l1.792,1.6a7.36,7.36,0,0,1-2.272,1.824,6.816,6.816,0,0,1-3.168.64m3.04-7.9a5.344,5.344,0,0,0-.32-1.376,3.616,3.616,0,0,0-.7-1.12,3.3,3.3,0,0,0-1.024-.736,3.168,3.168,0,0,0-1.344-.256,3.072,3.072,0,0,0-2.336.96,4.384,4.384,0,0,0-1.12,2.528Zm11.072,7.9a6.048,6.048,0,0,1-2.272-.448,5.76,5.76,0,0,1-1.984-1.344,6.72,6.72,0,0,1-1.376-2.176,7.712,7.712,0,0,1-.512-2.944v-.032a7.936,7.936,0,0,1,.512-2.976,6.72,6.72,0,0,1,1.376-2.144,5.664,5.664,0,0,1,1.92-1.344,6.048,6.048,0,0,1,2.336-.448,4.9,4.9,0,0,1,2.72.7A7.456,7.456,0,0,1,203.215,7.2V0h3.1V18.4h-3.1l.032-2.208a6.848,6.848,0,0,1-1.824,1.76,4.8,4.8,0,0,1-2.72.768m.736-2.656a3.68,3.68,0,0,0,2.688-1.152,4.352,4.352,0,0,0,.832-1.344,4.672,4.672,0,0,0,.32-1.76v-.032a4.736,4.736,0,0,0-.32-1.76,4.16,4.16,0,0,0-.832-1.344,3.712,3.712,0,0,0-1.248-.864,3.648,3.648,0,0,0-1.44-.32,3.776,3.776,0,0,0-1.472.32,3.52,3.52,0,0,0-1.216.832,3.936,3.936,0,0,0-.832,1.344,5.024,5.024,0,0,0-.32,1.792v.032a4.96,4.96,0,0,0,.32,1.76,3.968,3.968,0,0,0,.864,1.312,3.744,3.744,0,0,0,1.216.864,3.584,3.584,0,0,0,1.472.32" transform="translate(-99.825)" fill="#fff"/>
      <path id="Tracé_811675" data-name="Tracé 811675" d="M370.262,30.4a6.08,6.08,0,0,1-2.56-.544,6.489,6.489,0,0,1-3.9-6.048v-.032a6.592,6.592,0,0,1,.512-2.56,6.464,6.464,0,0,1,1.344-2.08A6.56,6.56,0,0,1,367.7,17.7a6.176,6.176,0,0,1,2.56-.512,5.792,5.792,0,0,1,2.944.64,9.279,9.279,0,0,1,2.112,1.7l-.384.352a8.671,8.671,0,0,0-1.984-1.536,5.376,5.376,0,0,0-2.72-.64,5.632,5.632,0,0,0-2.336.48,5.888,5.888,0,0,0-1.856,1.28,5.984,5.984,0,0,0-1.248,1.92,6.208,6.208,0,0,0-.416,2.336v.064a6.208,6.208,0,0,0,1.7,4.288,5.92,5.92,0,0,0,1.888,1.312,5.536,5.536,0,0,0,2.3.512,5.216,5.216,0,0,0,2.752-.672A8.127,8.127,0,0,0,375,27.553l.384.32a8.192,8.192,0,0,1-2.144,1.792,5.888,5.888,0,0,1-2.976.736" transform="translate(-247.385 -11.681)" fill="#fff"/>
      <path id="Tracé_811676" data-name="Tracé 811676" d="M370.262,30.4a6.08,6.08,0,0,1-2.56-.544,6.489,6.489,0,0,1-3.9-6.048v-.032a6.592,6.592,0,0,1,.512-2.56,6.464,6.464,0,0,1,1.344-2.08A6.56,6.56,0,0,1,367.7,17.7a6.176,6.176,0,0,1,2.56-.512,5.792,5.792,0,0,1,2.944.64,9.279,9.279,0,0,1,2.112,1.7l-.384.352a8.671,8.671,0,0,0-1.984-1.536,5.376,5.376,0,0,0-2.72-.64,5.632,5.632,0,0,0-2.336.48,5.888,5.888,0,0,0-1.856,1.28,5.984,5.984,0,0,0-1.248,1.92,6.208,6.208,0,0,0-.416,2.336v.064a6.208,6.208,0,0,0,1.7,4.288,5.92,5.92,0,0,0,1.888,1.312,5.536,5.536,0,0,0,2.3.512,5.216,5.216,0,0,0,2.752-.672A8.127,8.127,0,0,0,375,27.553l.384.32a8.192,8.192,0,0,1-2.144,1.792,5.888,5.888,0,0,1-2.976.736" transform="translate(-247.385 -11.681)" fill="#fff"/>
      <path id="Tracé_811677" data-name="Tracé 811677" d="M370.262,30.4a6.08,6.08,0,0,1-2.56-.544,6.489,6.489,0,0,1-3.9-6.048v-.032a6.592,6.592,0,0,1,.512-2.56,6.464,6.464,0,0,1,1.344-2.08A6.56,6.56,0,0,1,367.7,17.7a6.176,6.176,0,0,1,2.56-.512,5.792,5.792,0,0,1,2.944.64,9.279,9.279,0,0,1,2.112,1.7l-.384.352a8.671,8.671,0,0,0-1.984-1.536,5.376,5.376,0,0,0-2.72-.64,5.632,5.632,0,0,0-2.336.48,5.888,5.888,0,0,0-1.856,1.28,5.984,5.984,0,0,0-1.248,1.92,6.208,6.208,0,0,0-.416,2.336v.064a6.208,6.208,0,0,0,1.7,4.288,5.92,5.92,0,0,0,1.888,1.312,5.536,5.536,0,0,0,2.3.512,5.216,5.216,0,0,0,2.752-.672A8.127,8.127,0,0,0,375,27.553l.384.32a8.192,8.192,0,0,1-2.144,1.792,5.888,5.888,0,0,1-2.976.736" transform="translate(-247.385 -11.681)" fill="#fff"/>
      <path id="Tracé_811678" data-name="Tracé 811678" d="M370.262,30.4a6.08,6.08,0,0,1-2.56-.544,6.489,6.489,0,0,1-3.9-6.048v-.032a6.592,6.592,0,0,1,.512-2.56,6.464,6.464,0,0,1,1.344-2.08A6.56,6.56,0,0,1,367.7,17.7a6.176,6.176,0,0,1,2.56-.512,5.792,5.792,0,0,1,2.944.64,9.279,9.279,0,0,1,2.112,1.7l-.384.352a8.671,8.671,0,0,0-1.984-1.536,5.376,5.376,0,0,0-2.72-.64,5.632,5.632,0,0,0-2.336.48,5.888,5.888,0,0,0-1.856,1.28,5.984,5.984,0,0,0-1.248,1.92,6.208,6.208,0,0,0-.416,2.336v.064a6.208,6.208,0,0,0,1.7,4.288,5.92,5.92,0,0,0,1.888,1.312,5.536,5.536,0,0,0,2.3.512,5.216,5.216,0,0,0,2.752-.672A8.127,8.127,0,0,0,375,27.553l.384.32a8.192,8.192,0,0,1-2.144,1.792A5.888,5.888,0,0,1,370.262,30.4Zm8.064-12.928h.576v4.032a7.519,7.519,0,0,1,.64-1.536,5.986,5.986,0,0,1,1.12-1.408,5.44,5.44,0,0,1,1.5-.992,4.7,4.7,0,0,1,1.92-.384V17.7h-.128a3.936,3.936,0,0,0-2.112.576,5.952,5.952,0,0,0-1.6,1.44,6.784,6.784,0,0,0-.992,1.92,6.015,6.015,0,0,0-.352,1.92v6.528h-.544Z" transform="translate(-247.385 -11.681)" fill="#fff"/>
      <path id="Tracé_811679" data-name="Tracé 811679" d="M409.2,17.487h.576v4.032a7.519,7.519,0,0,1,.64-1.536,5.984,5.984,0,0,1,1.12-1.408,5.44,5.44,0,0,1,1.5-.992,4.7,4.7,0,0,1,1.92-.384v.512h-.128a3.936,3.936,0,0,0-2.112.576,5.952,5.952,0,0,0-1.6,1.44,6.783,6.783,0,0,0-.992,1.92,6.017,6.017,0,0,0-.352,1.92v6.528h-.544Z" transform="translate(-278.259 -11.695)" fill="#fff"/>
      <path id="Tracé_811680" data-name="Tracé 811680" d="M409.2,17.487h.576v4.032a7.519,7.519,0,0,1,.64-1.536,5.984,5.984,0,0,1,1.12-1.408,5.44,5.44,0,0,1,1.5-.992,4.7,4.7,0,0,1,1.92-.384v.512h-.128a3.936,3.936,0,0,0-2.112.576,5.952,5.952,0,0,0-1.6,1.44,6.783,6.783,0,0,0-.992,1.92,6.017,6.017,0,0,0-.352,1.92v6.528h-.544Z" transform="translate(-278.259 -11.695)" fill="#fff"/>
      <path id="Tracé_811681" data-name="Tracé 811681" d="M409.2,17.482h.576v4.032a7.519,7.519,0,0,1,.64-1.536,5.984,5.984,0,0,1,1.12-1.408,5.44,5.44,0,0,1,1.5-.992,4.7,4.7,0,0,1,1.92-.384v.512h-.128a3.936,3.936,0,0,0-2.112.576,5.952,5.952,0,0,0-1.6,1.44,6.783,6.783,0,0,0-.992,1.92,6.017,6.017,0,0,0-.352,1.92V30.09h-.544ZM422.608,30.41a6.464,6.464,0,0,1-2.464-.48,5.984,5.984,0,0,1-1.984-1.312,6.4,6.4,0,0,1-1.376-2.08,7.136,7.136,0,0,1-.512-2.752v-.032a7.391,7.391,0,0,1,.448-2.592,6.272,6.272,0,0,1,1.28-2.08,5.952,5.952,0,0,1,1.92-1.376,5.76,5.76,0,0,1,2.4-.512,5.344,5.344,0,0,1,2.592.576,5.5,5.5,0,0,1,1.824,1.568,6.528,6.528,0,0,1,1.056,2.144,8.545,8.545,0,0,1,.32,2.368v.1H416.848a6.368,6.368,0,0,0,.48,2.464,6.24,6.24,0,0,0,1.28,1.888,5.312,5.312,0,0,0,1.792,1.184,5.856,5.856,0,0,0,2.24.416,5.088,5.088,0,0,0,2.656-.736,6.56,6.56,0,0,0,2.016-1.792l.416.288a6.624,6.624,0,0,1-2.144,1.984,5.76,5.76,0,0,1-2.976.768m4.96-6.944a7.488,7.488,0,0,0-.384-2.112A5.856,5.856,0,0,0,426.16,19.5a5.152,5.152,0,0,0-1.632-1.28,4.768,4.768,0,0,0-2.24-.512,5.216,5.216,0,0,0-2.144.416,5.312,5.312,0,0,0-1.7,1.216,5.664,5.664,0,0,0-1.152,1.824,6.976,6.976,0,0,0-.448,2.3Z" transform="translate(-278.259 -11.69)" fill="#fff"/>
      <path id="Tracé_811682" data-name="Tracé 811682" d="M437.6,30.41a6.464,6.464,0,0,1-2.432-.48,5.984,5.984,0,0,1-1.984-1.312,6.4,6.4,0,0,1-1.376-2.08,7.136,7.136,0,0,1-.512-2.752v-.032a7.391,7.391,0,0,1,.448-2.592,6.272,6.272,0,0,1,1.28-2.08,5.951,5.951,0,0,1,1.92-1.376,5.76,5.76,0,0,1,2.4-.512,5.344,5.344,0,0,1,2.592.576,5.5,5.5,0,0,1,1.824,1.568,6.528,6.528,0,0,1,1.056,2.144,8.543,8.543,0,0,1,.32,2.368v.1H431.875a6.367,6.367,0,0,0,.48,2.464,6.239,6.239,0,0,0,1.28,1.888,5.312,5.312,0,0,0,1.792,1.184,5.856,5.856,0,0,0,2.24.416,5.088,5.088,0,0,0,2.656-.736,6.56,6.56,0,0,0,2.016-1.792l.416.288a6.624,6.624,0,0,1-2.144,1.984,5.76,5.76,0,0,1-2.976.768m4.96-6.944a7.487,7.487,0,0,0-.384-2.112,5.855,5.855,0,0,0-1.024-1.856,5.152,5.152,0,0,0-1.632-1.28,4.768,4.768,0,0,0-2.24-.512,5.216,5.216,0,0,0-2.144.416,5.312,5.312,0,0,0-1.7,1.216,5.664,5.664,0,0,0-1.152,1.824,6.976,6.976,0,0,0-.448,2.3Z" transform="translate(-293.286 -11.69)" fill="#fff"/>
      <path id="Tracé_811683" data-name="Tracé 811683" d="M437.6,30.41a6.464,6.464,0,0,1-2.432-.48,5.984,5.984,0,0,1-1.984-1.312,6.4,6.4,0,0,1-1.376-2.08,7.136,7.136,0,0,1-.512-2.752v-.032a7.391,7.391,0,0,1,.448-2.592,6.272,6.272,0,0,1,1.28-2.08,5.951,5.951,0,0,1,1.92-1.376,5.76,5.76,0,0,1,2.4-.512,5.344,5.344,0,0,1,2.592.576,5.5,5.5,0,0,1,1.824,1.568,6.528,6.528,0,0,1,1.056,2.144,8.543,8.543,0,0,1,.32,2.368v.1H431.875a6.367,6.367,0,0,0,.48,2.464,6.239,6.239,0,0,0,1.28,1.888,5.312,5.312,0,0,0,1.792,1.184,5.856,5.856,0,0,0,2.24.416,5.088,5.088,0,0,0,2.656-.736,6.56,6.56,0,0,0,2.016-1.792l.416.288a6.624,6.624,0,0,1-2.144,1.984,5.76,5.76,0,0,1-2.976.768m4.96-6.944a7.487,7.487,0,0,0-.384-2.112,5.855,5.855,0,0,0-1.024-1.856,5.152,5.152,0,0,0-1.632-1.28,4.768,4.768,0,0,0-2.24-.512,5.216,5.216,0,0,0-2.144.416,5.312,5.312,0,0,0-1.7,1.216,5.664,5.664,0,0,0-1.152,1.824,6.976,6.976,0,0,0-.448,2.3Z" transform="translate(-293.286 -11.69)" fill="#fff"/>
      <path id="Tracé_811684" data-name="Tracé 811684" d="M437.6,18.72a6.464,6.464,0,0,1-2.432-.48,5.984,5.984,0,0,1-1.984-1.312,6.4,6.4,0,0,1-1.376-2.08A7.136,7.136,0,0,1,431.3,12.1v-.032a7.391,7.391,0,0,1,.448-2.592,6.272,6.272,0,0,1,1.28-2.08,5.951,5.951,0,0,1,1.92-1.376,5.76,5.76,0,0,1,2.4-.512,5.344,5.344,0,0,1,2.592.576,5.5,5.5,0,0,1,1.824,1.568,6.528,6.528,0,0,1,1.056,2.144,8.543,8.543,0,0,1,.32,2.368v.1H431.875a6.367,6.367,0,0,0,.48,2.464,6.239,6.239,0,0,0,1.28,1.888,5.312,5.312,0,0,0,1.792,1.184,5.856,5.856,0,0,0,2.24.416,5.088,5.088,0,0,0,2.656-.736,6.56,6.56,0,0,0,2.016-1.792l.416.288a6.624,6.624,0,0,1-2.144,1.984,5.76,5.76,0,0,1-2.976.768Zm4.992-6.944a7.487,7.487,0,0,0-.384-2.112,5.855,5.855,0,0,0-1.024-1.856,5.152,5.152,0,0,0-1.632-1.28,4.768,4.768,0,0,0-2.24-.512,5.216,5.216,0,0,0-2.144.416,5.312,5.312,0,0,0-1.7,1.216,5.663,5.663,0,0,0-1.152,1.824,6.975,6.975,0,0,0-.48,2.3Zm9.28,6.944a6.08,6.08,0,0,1-2.56-.512A6.368,6.368,0,0,1,447.33,16.8a6.272,6.272,0,0,1-1.28-2.08,7.1,7.1,0,0,1-.48-2.56V12.1a7.1,7.1,0,0,1,.448-2.56A6.173,6.173,0,0,1,451.842,5.5a6.336,6.336,0,0,1,2.048.32,5.983,5.983,0,0,1,1.7.9,5.726,5.726,0,0,1,1.28,1.312,6.078,6.078,0,0,1,.8,1.7V0h.544V18.4h-.544V14.5a6.078,6.078,0,0,1-.8,1.7,5.664,5.664,0,0,1-1.28,1.312,5.824,5.824,0,0,1-1.7.9,6.335,6.335,0,0,1-2.048.32m.032-.512a5.536,5.536,0,0,0,2.368-.448,5.665,5.665,0,0,0,1.824-1.344,6.08,6.08,0,0,0,1.216-1.92,6.4,6.4,0,0,0,.416-2.336v-.032a6.4,6.4,0,0,0-.448-2.336,5.984,5.984,0,0,0-1.184-1.92,5.855,5.855,0,0,0-1.856-1.344,5.44,5.44,0,0,0-2.336-.48,5.856,5.856,0,0,0-2.336.448,5.312,5.312,0,0,0-1.824,1.28A5.76,5.76,0,0,0,446.53,9.7a6.72,6.72,0,0,0-.416,2.368v.064a6.688,6.688,0,0,0,.416,2.368,5.887,5.887,0,0,0,1.184,1.92,5.408,5.408,0,0,0,1.824,1.344,5.7,5.7,0,0,0,2.336.48" transform="translate(-293.286)" fill="#fff"/>
      <path id="Tracé_811685" data-name="Tracé 811685" d="M482.171,18.72a6.08,6.08,0,0,1-2.5-.512,6.367,6.367,0,0,1-2.016-1.408,6.271,6.271,0,0,1-1.28-2.08,7.1,7.1,0,0,1-.48-2.56V12.1a7.1,7.1,0,0,1,.448-2.56A6.173,6.173,0,0,1,482.171,5.5a6.336,6.336,0,0,1,2.048.32,5.983,5.983,0,0,1,1.7.9,5.728,5.728,0,0,1,1.28,1.312,6.08,6.08,0,0,1,.8,1.7V0h.544V18.4h-.544V14.5a6.08,6.08,0,0,1-.8,1.7,5.664,5.664,0,0,1-1.28,1.312,5.824,5.824,0,0,1-1.7.9,6.336,6.336,0,0,1-2.048.32m.032-.512a5.536,5.536,0,0,0,2.368-.448,5.664,5.664,0,0,0,1.824-1.344,6.08,6.08,0,0,0,1.216-1.92,6.4,6.4,0,0,0,.416-2.336v-.032a6.4,6.4,0,0,0-.448-2.336,5.983,5.983,0,0,0-1.184-1.92,5.856,5.856,0,0,0-1.856-1.344,5.44,5.44,0,0,0-2.336-.48,5.856,5.856,0,0,0-2.336.448,5.311,5.311,0,0,0-1.824,1.28,5.759,5.759,0,0,0-1.184,1.92,6.721,6.721,0,0,0-.416,2.368v.064a6.688,6.688,0,0,0,.416,2.368,5.888,5.888,0,0,0,1.184,1.92,5.408,5.408,0,0,0,1.824,1.344,5.7,5.7,0,0,0,2.336.48" transform="translate(-323.615)" fill="#fff"/>
      <path id="Tracé_811686" data-name="Tracé 811686" d="M482.171,18.72a6.08,6.08,0,0,1-2.5-.512,6.367,6.367,0,0,1-2.016-1.408,6.271,6.271,0,0,1-1.28-2.08,7.1,7.1,0,0,1-.48-2.56V12.1a7.1,7.1,0,0,1,.448-2.56A6.173,6.173,0,0,1,482.171,5.5a6.336,6.336,0,0,1,2.048.32,5.983,5.983,0,0,1,1.7.9,5.728,5.728,0,0,1,1.28,1.312,6.08,6.08,0,0,1,.8,1.7V0h.544V18.4h-.544V14.5a6.08,6.08,0,0,1-.8,1.7,5.664,5.664,0,0,1-1.28,1.312,5.824,5.824,0,0,1-1.7.9,6.336,6.336,0,0,1-2.048.32m.032-.512a5.536,5.536,0,0,0,2.368-.448,5.664,5.664,0,0,0,1.824-1.344,6.08,6.08,0,0,0,1.216-1.92,6.4,6.4,0,0,0,.416-2.336v-.032a6.4,6.4,0,0,0-.448-2.336,5.983,5.983,0,0,0-1.184-1.92,5.856,5.856,0,0,0-1.856-1.344,5.44,5.44,0,0,0-2.336-.48,5.856,5.856,0,0,0-2.336.448,5.311,5.311,0,0,0-1.824,1.28,5.759,5.759,0,0,0-1.184,1.92,6.721,6.721,0,0,0-.416,2.368v.064a6.688,6.688,0,0,0,.416,2.368,5.888,5.888,0,0,0,1.184,1.92,5.408,5.408,0,0,0,1.824,1.344,5.7,5.7,0,0,0,2.336.48" transform="translate(-323.615)" fill="#fff"/>
      <path id="Tracé_811687" data-name="Tracé 811687" d="M482.171,18.72a6.08,6.08,0,0,1-2.5-.512,6.367,6.367,0,0,1-2.016-1.408,6.271,6.271,0,0,1-1.28-2.08,7.1,7.1,0,0,1-.48-2.56V12.1a7.1,7.1,0,0,1,.448-2.56A6.173,6.173,0,0,1,482.171,5.5a6.336,6.336,0,0,1,2.048.32,5.983,5.983,0,0,1,1.7.9,5.728,5.728,0,0,1,1.28,1.312,6.08,6.08,0,0,1,.8,1.7V0h.544V18.4h-.544V14.5a6.08,6.08,0,0,1-.8,1.7,5.664,5.664,0,0,1-1.28,1.312,5.824,5.824,0,0,1-1.7.9A6.336,6.336,0,0,1,482.171,18.72Zm.032-.512a5.536,5.536,0,0,0,2.368-.448,5.664,5.664,0,0,0,1.824-1.344,6.08,6.08,0,0,0,1.216-1.92,6.4,6.4,0,0,0,.416-2.336v-.032a6.4,6.4,0,0,0-.448-2.336,5.984,5.984,0,0,0-1.184-1.92,5.856,5.856,0,0,0-1.856-1.344,5.44,5.44,0,0,0-2.336-.48,5.856,5.856,0,0,0-2.368.448,5.312,5.312,0,0,0-1.824,1.28,5.76,5.76,0,0,0-1.152,1.92,6.72,6.72,0,0,0-.416,2.368v.064a6.689,6.689,0,0,0,.416,2.368,5.888,5.888,0,0,0,1.152,1.92,5.408,5.408,0,0,0,1.824,1.344,5.7,5.7,0,0,0,2.368.48ZM492.763.768h.8v1.44h-.8Zm.128,5.024h.544V18.4h-.544Z" transform="translate(-323.615)" fill="#fff"/>
      <path id="Tracé_811688" data-name="Tracé 811688" d="M528.6,2.4h.8V3.84h-.8Zm.128,5.024h.544v12.64h-.544Z" transform="translate(-359.452 -1.632)" fill="#fff"/>
      <path id="Tracé_811689" data-name="Tracé 811689" d="M528.6,2.4h.8V3.84h-.8Zm.128,5.024h.544v12.64h-.544Z" transform="translate(-359.452 -1.632)" fill="#fff"/>
      <path id="Tracé_811690" data-name="Tracé 811690" d="M528.6,2.4h.8V3.84h-.8Zm.128,5.024h.544v12.64h-.544Zm8.8,12.864a3.157,3.157,0,0,1-2.432-.9,3.788,3.788,0,0,1-.832-2.56V7.872H532.28v-.48h1.984V3.072h.576V7.424h4.64V7.9h-4.64v8.864a3.586,3.586,0,0,0,.64,2.24,2.463,2.463,0,0,0,2.048.768,4.224,4.224,0,0,0,1.92-.448v.544a4.576,4.576,0,0,1-1.92.416" transform="translate(-359.452 -1.632)" fill="#fff"/>
      <path id="Tracé_811691" data-name="Tracé 811691" d="M545.348,21.716a3.157,3.157,0,0,1-2.432-.9,3.788,3.788,0,0,1-.832-2.56V9.3H540.1V8.82h1.984V4.5h.576V8.852h4.64v.48h-4.64V18.2a3.586,3.586,0,0,0,.64,2.24,2.463,2.463,0,0,0,2.048.768,4.224,4.224,0,0,0,1.92-.448V21.3a4.576,4.576,0,0,1-1.92.416" transform="translate(-367.272 -3.06)" fill="#fff"/>
      <path id="Tracé_811692" data-name="Tracé 811692" d="M545.348,21.716a3.157,3.157,0,0,1-2.432-.9,3.788,3.788,0,0,1-.832-2.56V9.3H540.1V8.82h1.984V4.5h.576V8.852h4.64v.48h-4.64V18.2a3.586,3.586,0,0,0,.64,2.24,2.463,2.463,0,0,0,2.048.768,4.224,4.224,0,0,0,1.92-.448V21.3a4.576,4.576,0,0,1-1.92.416" transform="translate(-367.272 -3.06)" fill="#fff"/>
      <path id="Tracé_811693" data-name="Tracé 811693" d="M545.348,21.716a3.157,3.157,0,0,1-2.432-.9,3.788,3.788,0,0,1-.832-2.56V9.3H540.1V8.82h1.984V4.5h.576V8.852h4.64v.48h-4.64V18.2a3.586,3.586,0,0,0,.64,2.24,2.463,2.463,0,0,0,2.048.768,4.224,4.224,0,0,0,1.92-.448V21.3A4.576,4.576,0,0,1,545.348,21.716Z" transform="translate(-367.272 -3.06)" fill="#fff"/>
      <path id="Tracé_811694" data-name="Tracé 811694" d="M569.3,48.3h2.88v2.944H569.3Z" transform="translate(-387.128 -32.844)" fill="#f15c25"/>
    </g>
  </g>
</svg>
