<svg xmlns="http://www.w3.org/2000/svg" width="28.186" height="28.938" viewBox="0 0 28.186 28.938">
  <g id="Groupe_12477" data-name="Groupe 12477" transform="translate(-17.25 -14.652)">
    <path id="Tracé_820083" data-name="Tracé 820083" d="M23.867,43.589a10.226,10.226,0,0,1-2.822-.356,12.261,12.261,0,0,1-2.413-.979l1.716-3.77a8.663,8.663,0,0,0,1.445.6,5.1,5.1,0,0,0,1.528.231,2.885,2.885,0,0,0,1.8-.544,4.991,4.991,0,0,0,1.341-2.011L17.25,14.652h5.4L28.935,31.07l5.738-16.418h5.279l-8.8,22.74a18.761,18.761,0,0,1-1.382,2.89,7.567,7.567,0,0,1-1.591,1.906,5.724,5.724,0,0,1-1.927,1.068A7.834,7.834,0,0,1,23.867,43.589Z" transform="translate(0 0)" fill="#fff"/>
    <path id="Tracé_820084" data-name="Tracé 820084" d="M71.635,54.586h4.783v4.928H71.635Z" transform="translate(-30.982 -22.749)" fill="#eb5b26"/>
  </g>
</svg>
